<svg xmlns="http://www.w3.org/2000/svg" viewBox="0 0 96 96" role="img" aria-label="Livraison adresse">
  <defs>
    <linearGradient id="copper" x1="18" y1="14" x2="82" y2="84" gradientUnits="userSpaceOnUse">
      <stop offset="0" stop-color="#f0a242"/>
      <stop offset="1" stop-color="#d77a22"/>
    </linearGradient>
  </defs>
  <path d="M17 43.5 48 19l31 24.5" fill="none" stroke="url(#copper)" stroke-width="5" stroke-linecap="round" stroke-linejoin="round"/>
  <path d="M25 41v35h46V41" fill="none" stroke="url(#copper)" stroke-width="5" stroke-linecap="round" stroke-linejoin="round"/>
  <path d="M39 76V57h18v19" fill="none" stroke="url(#copper)" stroke-width="5" stroke-linecap="round" stroke-linejoin="round"/>
  <path d="M48 33c-8.5 0-15.5 6.7-15.5 15 0 11.8 15.5 25 15.5 25s15.5-13.2 15.5-25c0-8.3-7-15-15.5-15Z" fill="#06110f" stroke="url(#copper)" stroke-width="4" stroke-linejoin="round"/>
  <path d="M48 54.5a6.6 6.6 0 1 0 0-13.2 6.6 6.6 0 0 0 0 13.2Z" fill="url(#copper)"/>
</svg>
